<?xml version="1.0" encoding="UTF-8"?>
<svg version="1.0" xmlns="http://www.w3.org/2000/svg" width="452pt" height="452pt" viewBox="0 0 452 452" preserveAspectRatio="xMidYMid meet">
  <g transform="translate(0.000000,452.000000) scale(0.100000,-0.100000)" fill="#ffffff" stroke="none">
    <path d="M180 2805 l0 -905 498 -2 497 -3 -2 -150 c-2 -113 -8 -170 -23 -230 -41 -161 -125 -293 -230 -363 -72 -48 -107 -59 -212 -68 l-78 -7 0 -315 0 -315 123 6 c267 14 468 79 680 220 243 162 440 441 512 722 43 169 45 222 45 1293 l0 1022 -905 0 -905 0 0 -905z m1625 -245 c0 -1038 1 -1018 -53 -1180 -122 -369 -449 -647 -840 -715 -46 -8 -89 -15 -93 -15 -5 0 -9 62 -9 139 l0 139 46 11 c126 32 244 111 321 214 138 188 183 372 183 755 l0 172 -500 0 -500 0 0 718 c0 395 3 722 7 725 3 4 329 6 722 5 l716 -3 0 -965z"/>
    <path d="M2530 2805 l0 -905 502 0 501 0 -6 -152 c-8 -180 -29 -276 -87 -394 -46 -95 -129 -185 -205 -226 -50 -27 -146 -48 -217 -48 l-38 0 0 -315 0 -315 65 0 c399 0 754 219 947 583 154 191 245 406 274 647 7 54 11 453 11 1112 l0 1028 -905 0 -905 0 0 -905z m1628 -200 c2 -639 0 -948 -8 -1013 -50 -407 -323 -745 -714 -881 -72 -26 -228 -61 -267 -61 -5 0 -9 62 -9 139 l0 139 48 11 c160 41 302 157 385 318 90 173 117 323 117 638 l0 185 -500 0 -500 0 0 718 c0 395 3 722 7 725 3 4 329 6 722 5 l716 -3 3 -920z"/>
  </g>
</svg>

